<svg width="129" height="128" viewBox="0 0 129 128" fill="none" xmlns="http://www.w3.org/2000/svg">
<path d="M43.0013 5.3335H5.66797V42.6668H43.0013V5.3335ZM37.668 37.3335H11.0013V10.6668H37.668V37.3335Z" fill="#23262F"/>
<path d="M83.0013 112H77.668V122.667H123.001V117.333H83.0013V112Z" fill="#23262F"/>
<path d="M32.334 16H16.334V32H32.334V16Z" fill="#23262F"/>
<path d="M5.66797 122.667H43.0013V85.3335H5.66797V122.667ZM11.0013 90.6668H37.668V117.333H11.0013V90.6668Z" fill="#23262F"/>
<path d="M32.334 96H16.334V112H32.334V96Z" fill="#23262F"/>
<path d="M85.668 5.3335V42.6668H123.001V5.3335H85.668ZM117.668 37.3335H91.0013V10.6668H117.668V37.3335Z" fill="#23262F"/>
<path d="M112.334 16H96.334V32H112.334V16Z" fill="#23262F"/>
<path d="M123.001 48H112.334V58.6667H123.001V48Z" fill="#23262F"/>
<path d="M16.3346 69.3335H5.66797V80.0002H16.3346V69.3335Z" fill="#23262F"/>
<path d="M61.6673 48.0002H40.334V53.3335H67.0007V42.6668V37.3335H72.334V26.6668H67.0007H61.6673H56.334V16.0002H61.6673V21.3335H80.334V5.3335H75.0007V16.0002H67.0007V5.3335H64.334H53.6673H51.0007V32.0002H61.6673V37.3335H51.0007V42.6668H61.6673V48.0002Z" fill="#23262F"/>
<path d="M13.668 64H24.3346H29.668H32.3346V69.3333H21.668V74.6667H32.3346V80H53.668V74.6667H37.668V69.3333V58.6667H29.668V50.6667H24.3346V58.6667H19.0013V48H5.66797V53.3333H13.668V64Z" fill="#23262F"/>
<path d="M64.334 112V98.6667H53.6673V88H48.334V104H59.0007V112H48.334V117.333H59.0007V122.667H72.334V117.333H64.334V112Z" fill="#23262F"/>
<path d="M91.002 58.6668H80.3353V45.3335H75.002V64.0002H101.669V58.6668H96.3353V53.3335H104.335V48.0002H96.3353H91.002H85.6686V53.3335H91.002V58.6668Z" fill="#23262F"/>
<path d="M85.668 106.667H93.668V112H104.335V106.667V101.334V93.3337H93.668V101.334H85.668V93.3337H80.3346V101.334H75.0013V80.0003H69.668V74.667H64.3346V58.667H45.668V69.3337H51.0013V64.0003H59.0013V74.667V85.3337H69.668V101.334V106.667H75.0013H80.3346H85.668Z" fill="#23262F"/>
<path d="M117.667 72H109.667H104.334H91.0007V82.6667H85.6673V72H80.334V88H96.334V77.3333H104.334V85.3333H109.667V77.3333H117.667V93.3333H109.667V109.333H123.001V104H115.001V98.6667H123.001V77.3333V72V64H117.667V72Z" fill="#23262F"/>
</svg>
