<svg width="16" height="16" viewBox="0 0 16 16" fill="none" xmlns="http://www.w3.org/2000/svg">
<path d="M13.3333 8.66683C13.7015 8.66683 14 8.36835 14 8.00016C14 7.63197 13.7015 7.3335 13.3333 7.3335C12.9651 7.3335 12.6667 7.63197 12.6667 8.00016C12.6667 8.36835 12.9651 8.66683 13.3333 8.66683Z" fill="#FCFCFD"/>
<path d="M13.3333 11.3335C13.7015 11.3335 14 11.035 14 10.6668C14 10.2986 13.7015 10.0002 13.3333 10.0002C12.9651 10.0002 12.6667 10.2986 12.6667 10.6668C12.6667 11.035 12.9651 11.3335 13.3333 11.3335Z" fill="#FCFCFD"/>
<path d="M13.3333 14.0002C13.7015 14.0002 14 13.7017 14 13.3335C14 12.9653 13.7015 12.6668 13.3333 12.6668C12.9651 12.6668 12.6667 12.9653 12.6667 13.3335C12.6667 13.7017 12.9651 14.0002 13.3333 14.0002Z" fill="#FCFCFD"/>
<path d="M8 11.3335C8.36819 11.3335 8.66667 11.035 8.66667 10.6668C8.66667 10.2986 8.36819 10.0002 8 10.0002C7.63181 10.0002 7.33333 10.2986 7.33333 10.6668C7.33333 11.035 7.63181 11.3335 8 11.3335Z" fill="#FCFCFD"/>
<path d="M8 14.0002C8.36819 14.0002 8.66667 13.7017 8.66667 13.3335C8.66667 12.9653 8.36819 12.6668 8 12.6668C7.63181 12.6668 7.33333 12.9653 7.33333 13.3335C7.33333 13.7017 7.63181 14.0002 8 14.0002Z" fill="#FCFCFD"/>
<path d="M2.66667 14.0002C3.03486 14.0002 3.33333 13.7017 3.33333 13.3335C3.33333 12.9653 3.03486 12.6668 2.66667 12.6668C2.29848 12.6668 2 12.9653 2 13.3335C2 13.7017 2.29848 14.0002 2.66667 14.0002Z" fill="#FCFCFD"/>
<path fill-rule="evenodd" clip-rule="evenodd" d="M13.3327 6C12.2281 6 11.3327 5.10457 11.3327 4C11.3327 2.89543 12.2281 2 13.3327 2C14.4373 2 15.3327 2.89543 15.3327 4C15.3327 5.10457 14.4373 6 13.3327 6ZM13.3327 4.66667C12.9645 4.66667 12.666 4.36819 12.666 4C12.666 3.63181 12.9645 3.33333 13.3327 3.33333C13.7009 3.33333 13.9993 3.63181 13.9993 4C13.9993 4.36819 13.7009 4.66667 13.3327 4.66667Z" fill="#FCFCFD"/>
<path fill-rule="evenodd" clip-rule="evenodd" d="M7.99935 8.66667C6.89478 8.66667 5.99935 7.77124 5.99935 6.66667C5.99935 5.5621 6.89478 4.66667 7.99935 4.66667C9.10392 4.66667 9.99935 5.5621 9.99935 6.66667C9.99935 7.77124 9.10392 8.66667 7.99935 8.66667ZM7.99935 7.33333C7.63116 7.33333 7.33268 7.03486 7.33268 6.66667C7.33268 6.29848 7.63116 6 7.99935 6C8.36754 6 8.66602 6.29848 8.66602 6.66667C8.66602 7.03486 8.36754 7.33333 7.99935 7.33333Z" fill="#FCFCFD"/>
<path fill-rule="evenodd" clip-rule="evenodd" d="M0.666016 9.33333C0.666016 10.4379 1.56145 11.3333 2.66602 11.3333C3.77058 11.3333 4.66602 10.4379 4.66602 9.33333C4.66602 8.22876 3.77058 7.33333 2.66602 7.33333C1.56145 7.33333 0.666016 8.22876 0.666016 9.33333ZM1.99935 9.33333C1.99935 9.70152 2.29783 10 2.66602 10C3.03421 10 3.33268 9.70152 3.33268 9.33333C3.33268 8.96514 3.03421 8.66667 2.66602 8.66667C2.29783 8.66667 1.99935 8.96514 1.99935 9.33333Z" fill="#FCFCFD"/>
</svg>
